<?xml version="1.0" encoding="UTF-8"?>
<svg width="40px" height="32px" viewBox="0 0 40 32" version="1.1" xmlns="http://www.w3.org/2000/svg" xmlns:xlink="http://www.w3.org/1999/xlink">
    <!-- Generator: Sketch 46.2 (44496) - http://www.bohemiancoding.com/sketch -->
    <title>icon_微信</title>
    <desc>Created with Sketch.</desc>
    <defs></defs>
    <g id="Page-1" stroke="none" stroke-width="1" fill="none" fill-rule="evenodd">
        <g id="加上花就对了－6" transform="translate(-600.000000, -824.000000)" fill="#333333">
            <g id="Footer" transform="translate(0.000000, 400.000000)">
                <g id="icon" transform="translate(600.000000, 420.000000)">
                    <g id="icon_微信">
                        <path d="M31.9999498,18.9999895 C33.0999629,18.9999895 33.9999204,19.899947 33.9999204,20.9998765 C33.9999204,22.0999734 33.0999629,22.9998472 31.9999498,22.9998472 C30.8998528,22.9998472 29.9999791,22.0999734 29.9999791,20.9998765 C29.9999791,19.899947 30.8998528,18.9999895 31.9999498,18.9999895 M24.000067,18.9999895 C25.1000802,18.9999895 26.0000377,19.899947 26.0000377,20.9998765 C26.0000377,22.0999734 25.1000802,22.9998472 24.000067,22.9998472 C22.9000538,22.9998472 21.9998451,22.0999734 21.9998451,20.9998765 C21.9998451,19.899947 22.9000538,18.9999895 24.000067,18.9999895 M27.9999246,14.0000209 C21.3800828,14.0000209 16.0000167,18.479962 16.0000167,23.9998744 C16.0000167,29.520038 21.3800828,33.9999791 27.9999246,33.9999791 C29.3398539,33.9999791 30.6199926,33.8399513 31.8200755,33.4997142 L35.9998911,35.999866 L34.7599478,32.2599384 C37.9000433,30.4399257 40,27.4200814 40,23.9998744 C40,18.479962 34.619934,14.0000209 27.9999246,14.0000209 M18.9999309,8.9999686 C20.0999441,8.9999686 20.9999016,9.89984236 20.9999016,10.9998555 C20.9999016,12.0998687 20.0999441,13.0000775 18.9999309,13.0000775 C17.8999177,13.0000775 16.9999602,12.0998687 16.9999602,10.9998555 C16.9999602,9.89984236 17.8999177,8.9999686 18.9999309,8.9999686 M9.00007746,8.9999686 C10.1000906,8.9999686 11.0001319,9.89984236 11.0001319,10.9998555 C11.0001319,12.0998687 10.1000906,13.0000775 9.00007746,13.0000775 C7.90006427,13.0000775 6.99985555,12.0998687 6.99985555,10.9998555 C6.99985555,9.89984236 7.90006427,8.9999686 9.00007746,8.9999686 M14.9999895,4 C6.71991157,4 0,9.38006603 0,15.9999916 C0,19.7799471 2.15991475,23.1200146 5.56002403,25.3201247 L3.99994138,29.9999539 L9.00007746,27.0000398 C10.780146,27.6198858 12.7400051,27.9999833 14.8201153,27.9999833 C14.3000877,26.740026 14.0000461,25.3999292 14.0000461,23.9998744 C14.0000461,17.3799488 20.2599719,12.000134 27.9999246,12.000134 C28.3799383,12.000134 28.759952,12.000134 29.119868,12.0600083 C27.0798694,7.37984412 21.559957,4 14.9999895,4" id="wechat"></path>
                    </g>
                </g>
            </g>
        </g>
    </g>
</svg>