<?xml version="1.0" encoding="UTF-8"?>
<svg width="40px" height="33px" viewBox="0 0 40 33" version="1.1" xmlns="http://www.w3.org/2000/svg" xmlns:xlink="http://www.w3.org/1999/xlink">
    <!-- Generator: Sketch 46.2 (44496) - http://www.bohemiancoding.com/sketch -->
    <title>icon_微博</title>
    <desc>Created with Sketch.</desc>
    <defs></defs>
    <g id="Page-1" stroke="none" stroke-width="1" fill="none" fill-rule="evenodd">
        <g id="加上花就对了－6" transform="translate(-690.000000, -824.000000)" fill="#333333">
            <g id="Footer" transform="translate(0.000000, 400.000000)">
                <g id="icon" transform="translate(600.000000, 420.000000)">
                    <g id="icon_微博" transform="translate(90.000000, 0.000000)">
                        <path d="M17.1688231,26.0935069 C16.9373068,26.4893042 16.4251032,26.6798313 16.0239595,26.5146592 C15.6297013,26.3526464 15.5060855,25.9096223 15.7303112,25.5204675 C15.9606935,25.1334189 16.4527264,24.9445119 16.8464986,25.1005303 C17.2460222,25.2467469 17.3898086,25.6947933 17.1688231,26.0935069 M15.0588491,28.8014703 C14.4180884,29.8236092 13.0465688,30.2713316 12.013413,29.7995503 C10.9955674,29.3359506 10.6949526,28.1490446 11.3353083,27.1525847 C11.9683734,26.1605802 13.2938004,25.7185282 14.3189365,26.1482672 C15.3563046,26.5905623 15.6876209,27.7696106 15.0588491,28.8014703 M17.4649016,21.5697848 C14.3136711,20.7502429 10.7522242,22.3203902 9.38378284,25.097047 C7.98958147,27.9287882 9.33744717,31.072242 12.5210802,32.0999704 C15.8189323,33.1631796 19.705863,31.5335736 21.0572119,28.4768776 C22.3898484,25.4891181 20.7257337,22.4127375 17.4649016,21.5697848 M33.2374171,11.0710297 C31.959217,9.65236439 30.0708765,9.11342873 28.3281855,9.48435709 C27.6158961,9.63624411 27.1616122,10.3371116 27.3144713,11.050049 C27.4668443,11.7600702 28.1672258,12.2160553 28.8781381,12.0613331 L28.8781381,12.0629532 C29.7299205,11.882876 30.6536366,12.1454177 31.2789251,12.8378606 C31.9046186,13.5311944 32.0726259,14.4763773 31.8041707,15.3057209 L31.8056288,15.3057209 C31.5823751,15.9977587 31.9609181,16.7419646 32.653928,16.9663524 C33.3470998,17.1878239 34.0904147,16.810334 34.3139114,16.1164331 C34.8618387,14.4216169 34.5191816,12.489128 33.2374171,11.0710297 M37.2721035,7.4949206 C34.6449036,4.58217302 30.7695568,3.47181812 27.1929617,4.23254935 L27.1916656,4.23254935 C26.364104,4.40938634 25.8365903,5.22390582 26.0136703,6.0497662 C26.1898592,6.87659865 27.0037307,7.40508449 27.8316972,7.22849051 C30.3759466,6.68833975 33.1298406,7.4784763 34.9976055,9.5476231 C36.8635882,11.6164459 37.3702023,14.4387093 36.5712361,16.9125641 L36.5715601,16.9128881 C36.3111245,17.7188209 36.7517183,18.5808912 37.5582992,18.8414888 C38.3622068,19.1016004 39.2258972,18.6614926 39.4868189,17.8574229 C39.4868189,17.8558028 39.4868189,17.8528866 39.4874669,17.8514284 C40.6083526,14.371636 39.8998706,10.404833 37.2721035,7.4949206 M17.4482142,34.633932 C10.826264,35.2874107 3.72354076,30.566843 3.29331571,26.2191479 C2.86317165,21.8722627 8.53499765,18.1678395 15.1771995,17.7833831 C22.9621587,17.3327444 29.6046846,21.0179691 30.0338565,25.3638011 C30.4635956,29.7127924 24.0707315,33.9789951 17.4482142,34.633932 M30.0477896,19.6004379 C29.484228,19.4314585 29.0983945,19.3165914 29.3937439,18.5763548 C30.0324794,16.9695116 30.0984187,15.5832489 29.4058948,14.5944036 C28.107119,12.7387897 24.5544208,12.8395617 20.4817424,14.5443416 C20.4817424,14.5421545 19.2034612,15.1038529 19.529917,14.0893286 C20.1565826,12.0755902 20.0623722,10.3887127 19.08746,9.4150156 C16.8776861,7.20410758 11.00221,9.49853321 5.96409713,14.5351069 C2.19098044,18.3092767 0,22.3083203 0,25.7669701 C0,32.3816297 8.4825865,36.403193 16.7808834,36.403193 C27.6598826,36.403193 34.8963475,30.0824247 34.8963475,25.0641584 C34.8963475,22.0324124 32.3423773,20.3116742 30.0477896,19.6004379" id="sina"></path>
                    </g>
                </g>
            </g>
        </g>
    </g>
</svg>