<?xml version="1.0" encoding="UTF-8"?>
<svg width="178px" height="43px" viewBox="0 0 178 43" version="1.1" xmlns="http://www.w3.org/2000/svg" xmlns:xlink="http://www.w3.org/1999/xlink">
    <!-- Generator: Sketch 52.2 (67145) - http://www.bohemiancoding.com/sketch -->
    <title>分组</title>
    <desc>Created with Sketch.</desc>
    <defs>
        <polygon id="path-1" points="1.50943396e-05 0.00378867925 7.99624151 0.00378867925 7.99624151 8 1.50943396e-05 8"></polygon>
        <polygon id="path-3" points="0 43 178 43 178 0 0 0"></polygon>
    </defs>
    <g id="Page-1" stroke="none" stroke-width="1" fill="none" fill-rule="evenodd">
        <g id="画板" transform="translate(0.000000, -3.000000)">
            <g id="分组" transform="translate(0.000000, 3.000000)">
                <path d="M16.239944,16.4922979 L16.239944,4 L13,4 L13,20 L22,20 L22,16.8000639 L16.5400166,16.8000639 C16.3742607,16.8000639 16.239944,16.6621438 16.239944,16.4922979" id="Fill-1" fill="#060101"></path>
                <path d="M30.0121568,16.8954577 C27.2964759,16.8954577 25.2363309,14.7169972 25.2363309,11.9999226 C25.2363309,9.306542 27.2964759,7.10438747 30.0121568,7.10438747 C32.7044533,7.10438747 34.7645983,9.306542 34.7645983,11.9999226 C34.7645983,14.7169972 32.7044533,16.8954577 30.0121568,16.8954577 M29.9999226,4 C25.4514359,4 22,7.46459924 22,11.9999226 C22,16.5357105 25.4514359,20 29.9999226,20 C34.5485641,20 38,16.5357105 38,11.9999226 C38,7.46459924 34.5485641,4 29.9999226,4" id="Fill-3" fill="#060101"></path>
                <path d="M132.532433,11.1919161 L130.391555,9.83468195 C129.677779,9.40168028 129.277136,8.9231484 129.277136,8.42169654 C129.277136,7.62383368 129.872678,6.98377792 131.105482,6.98377792 C132.230595,6.98377792 133.528617,7.54252971 134.286073,8.11243176 L134.286073,4.71857215 C133.377247,4.28541562 132.173662,4 131.070389,4 C127.338689,4 126,6.35951837 126,8.3337334 C126,10.0945449 126.727181,11.4847652 128.552666,12.5957645 L130.564916,13.8493941 C131.572246,14.4637423 131.864143,15.1151032 131.751632,15.8178791 C131.631891,16.5678888 130.828497,17.0499826 129.779446,17.0165318 C128.41711,16.9730148 127.011849,16.3566534 126.211015,15.6956909 L126.211015,19.226296 C127.141229,19.6363777 128.568029,20 130.017421,20 C133.435536,20 135,17.8311201 135,15.3921561 C135,13.6668086 134.375238,12.3612993 132.532433,11.1919161" id="Fill-5" fill="#060101"></path>
                <path d="M93.4587484,10.8924207 L91.7088966,10.8924207 C91.5349223,10.8924207 91.3945363,10.7546616 91.3945363,10.5846577 L91.3945363,7.44636996 C91.3945363,7.27636607 91.5349223,7.13860705 91.7088966,7.13860705 L93.4587484,7.13860705 C94.6491759,7.13860705 95.5461135,7.75253659 95.5461135,9.01551385 C95.5461135,10.2545469 94.6491759,10.8924207 93.4587484,10.8924207 M93.6426687,4 L88,4 L88,20 L91.3945363,20 L91.3945363,14.3384714 C91.3945363,14.1684675 91.5349223,14.0307084 91.7088966,14.0307084 L93.6426687,14.0307084 C96.8237727,14.0307084 99,12.1767881 99,9.01551385 C99,5.87770495 96.8237727,4 93.6426687,4" id="Fill-7" fill="#060101"></path>
                <path d="M1,20 L4.23994397,20 L4.23994397,13.846117 C4.23994397,13.6761114 4.37441635,13.538351 4.5400166,13.538351 L8.80002075,13.538351 L8.80002075,10.3384149 L4.5400166,10.3384149 C4.37441635,10.3384149 4.23994397,10.2006545 4.23994397,10.0306489 L4.23994397,7.50770213 C4.23994397,7.33769654 4.37441635,7.19993615 4.5400166,7.19993615 L10,7.19993615 L10,4 L1,4 L1,20 Z" id="Fill-9" fill="#060101"></path>
                <path d="M62,20 L71,20 L71,16.8000639 L65.540111,16.8000639 C65.374358,16.8000639 65.2400436,16.6621438 65.2400436,16.4922979 L65.2400436,13.7845 C65.2400436,13.614654 65.374358,13.4768936 65.540111,13.4768936 L69.7998859,13.4768936 L69.7998859,10.2767978 L65.540111,10.2767978 C65.374358,10.2767978 65.2400436,10.1393567 65.2400436,9.96919148 L65.2400436,7.50770213 C65.2400436,7.33769654 65.374358,7.19993615 65.540111,7.19993615 L71,7.19993615 L71,4 L62,4 L62,20 Z" id="Fill-11" fill="#060101"></path>
                <path d="M56.3373848,4 L53.9109976,13.3662703 C53.864929,13.5440977 53.6215121,13.5511214 53.5657939,13.3761673 L50.5800458,4 L48.4199542,4 L45.4342061,13.3761673 C45.3784879,13.5511214 45.135071,13.5440977 45.089158,13.3662703 L42.6626152,4 L39,4 L43.801881,20 L46.3817267,20 L49.3288767,10.7523346 C49.3830385,10.5826483 49.6169615,10.5826483 49.6711233,10.7523346 L52.6182733,20 L55.1982746,20 L60,4 L56.3373848,4 Z" id="Fill-13" fill="#060101"></path>
                <path d="M119.760778,14.0637991 C119.760778,15.7071408 118.710817,16.8506151 116.988171,16.8506151 C115.289183,16.8506151 114.239222,15.7071408 114.239222,14.0637991 L114.239222,4 L111,4 L111,13.7687799 C111,17.6660808 113.312062,20 116.988482,20 C120.664903,20 123,17.6660808 123,13.7687799 L123,4 L119.760778,4 L119.760778,14.0637991 Z" id="Fill-15" fill="#060101"></path>
                <path d="M79.5524124,10.8308724 L77.7263468,10.8308724 C77.5520301,10.8308724 77.4106436,10.693112 77.4106436,10.523266 L77.4106436,7.44624471 C77.4106436,7.27623913 77.5520301,7.13863836 77.7263468,7.13863836 L79.5524124,7.13863836 C80.7098818,7.13863836 81.5819567,7.74251736 81.5819567,8.98475537 C81.5819567,10.2035278 80.7098818,10.8308724 79.5524124,10.8308724 M82.597548,12.8758879 C82.4802447,12.7943172 82.4966278,12.6225557 82.6258908,12.5606194 C83.6277203,12.080613 85.0527264,11.0553117 85.0527264,8.73860643 C85.0527264,5.60076622 82.8659039,4 79.6695519,4 L74,4 L74,20 L77.4106436,20 L77.4104798,14.2155 C77.4104798,14.0794956 77.5236873,13.9693511 77.6631079,13.9693511 L78.1049614,13.9693511 C78.7758512,13.9693511 79.4097152,14.0911485 80.0090107,14.4779312 C81.2970538,15.3089632 82.0300358,16.9834783 82.4654998,20 L86,20 C85.339923,15.4764147 84.0535183,13.88794 82.597548,12.8758879" id="Fill-17" fill="#060101"></path>
                <path d="M104.239944,16.4922979 L104.239944,4 L101,4 L101,20 L110,20 L110,16.8000639 L104.540017,16.8000639 C104.373949,16.8000639 104.239944,16.6621438 104.239944,16.4922979" id="Fill-19" fill="#060101"></path>
                <polygon id="Fill-21" fill="#060101" points="33 0 28 0.999935153 28 2 33 2"></polygon>
                <path d="M152.044676,14.6017699 C154.300016,13.1997449 156.377955,11.4044591 158,9.30005665 L155.799935,8 C154.544921,9.65301176 153.138921,10.9423095 151.667536,11.9819052 C151.583727,12.0409987 151.465351,11.9857592 151.458829,11.8844331 C151.446274,11.6888465 151.436165,11.487479 151.428175,11.2788855 C151.38301,10.1124315 151.402576,9.18540245 151.412685,8.43324516 L148.860916,8.43324516 C148.860916,8.43324516 148.820642,10.1948091 148.882276,11.4018898 C148.919615,12.1310842 148.975053,12.7896232 149.057231,13.3999883 C149.069297,13.490716 149.02299,13.5790351 148.940323,13.6212677 C148.293657,13.9523839 147.644872,14.2505812 147,14.5245309 L147.893364,16.6666697 C148.42736,16.4635358 148.960378,16.2348697 149.489809,15.9867734 C149.581934,15.9435774 149.690527,15.9862917 149.727866,16.0795887 C149.992173,16.735398 150.334094,17.3611787 150.779879,17.9994847 C152.025273,19.7807999 154.113974,20.809155 156.355617,20.9759978 C156.633784,20.9967126 157.108756,21.0031358 157.34029,20.9986396 L157.34029,18.2700622 C156.190934,18.4194017 153.420512,18.0584176 152.261373,15.5344192 C152.151476,15.2953154 152.055438,15.0520366 151.97114,14.8020133 C151.945704,14.7267012 151.97652,14.644163 152.044676,14.6017699" id="Fill-23" fill="#060101"></path>
                <path d="M142.946843,13.6747931 C143.026451,13.6128332 143.137813,13.6720992 143.137813,13.7771615 L143.137813,21 L145.471494,21 L145.471494,11.4415447 C145.471494,11.3360069 145.508615,11.2350647 145.574955,11.1566244 C146.079587,10.5630142 146.555894,9.92630155 147,9.24236625 L144.970887,8 C143.834011,10.0022063 141.831285,11.8548216 140,13.0135183 L141.027452,14.9704036 C141.692493,14.5818472 142.333085,14.1505053 142.946843,13.6747931" id="Fill-25" fill="#060101"></path>
                <path d="M169,9.41521177 L169,5.02273091 L165.260654,5.02273091 C165.164629,5.02273091 165.086971,4.94528243 165.086971,4.85007201 L165.086971,2 L162.565341,2 L162.565341,4.85007201 C162.565341,4.94528243 162.487199,5.02273091 162.391013,5.02273091 L160.304075,5.02273091 L160.304075,7.26825674 L162.362495,7.26825674 C162.460454,7.26825674 162.539562,7.34858553 162.536823,7.4460362 C162.486716,9.08925609 162.365073,10.7820814 162.12936,12.3619344 C161.599771,15.9128831 160.081895,18.4978061 159,19.5782444 L161.116745,21 C162.224097,19.7907476 163.801263,17.2173459 164.463451,13.7009609 C164.768927,12.0771032 164.986434,9.67924067 165.059581,7.43467495 C165.062642,7.34154476 165.139011,7.26825674 165.23262,7.26825674 L166.304365,7.26825674 C166.400068,7.26825674 166.478209,7.3455452 166.478209,7.44091564 L166.478209,9.19918812 C166.478209,11.0601919 166.465159,13.69232 166.370906,15.2260879 C166.319026,16.0682601 166.280358,17.0157238 165.989705,17.4540118 C165.670695,17.9356645 164.9787,17.8831788 164.652118,17.8476549 L164.652118,20.5681127 C165.435626,20.5681127 166.552967,20.4964249 167.384971,20.004211 C168.42836,19.3867034 168.702741,17.930704 168.837917,16.0735407 C169,13.8468969 169,10.6054221 169,9.41521177" id="Fill-27" fill="#060101"></path>
                <path d="M175.550267,18.7050268 C175.550267,18.798892 175.471966,18.8751181 175.375182,18.8751181 L173.625142,18.8751181 C173.528359,18.8751181 173.450057,18.798892 173.450057,18.7050268 L173.450057,6.29497323 C173.450057,6.201108 173.528359,6.12503937 173.625142,6.12503937 L175.375182,6.12503937 C175.471966,6.12503937 175.550267,6.201108 175.550267,6.29497323 L175.550267,18.7050268 Z M171,21 L178,21 L178,4 L171,4 L171,21 Z" id="Fill-29" fill="#060101"></path>
                <path d="M144.705066,6.03559306 L144.705066,7 L147.147077,7 L147.147077,6.03559306 C147.147077,5.94279575 147.222751,5.86759256 147.315588,5.86759256 L150.683944,5.86759256 C150.777093,5.86759256 150.852455,5.94279575 150.852455,6.03559306 L150.852455,7 L153.294778,7 L153.294778,6.03559306 C153.294778,5.94279575 153.369984,5.86759256 153.463133,5.86759256 L157,5.86759256 L157,3.68265189 L153.463133,3.68265189 C153.369984,3.68265189 153.294778,3.6074487 153.294778,3.51465139 L153.294778,2 L150.852455,2 L150.852455,3.51465139 C150.852455,3.6074487 150.777093,3.68265189 150.683944,3.68265189 L147.315588,3.68265189 C147.222751,3.68265189 147.147077,3.6074487 147.147077,3.51465139 L147.147077,2 L144.705066,2 L144.705066,3.51465139 C144.705066,3.6074487 144.62986,3.68265189 144.536867,3.68265189 L141,3.68265189 L141,5.86759256 L144.536867,5.86759256 C144.62986,5.86759256 144.705066,5.94279575 144.705066,6.03559306" id="Fill-31" fill="#060101"></path>
                <g transform="translate(0.000000, 35.000000)">
                    <mask id="mask-2" fill="white">
                        <use xlink:href="#path-1"></use>
                    </mask>
                    <g id="Clip-34"></g>
                    <path d="M1.97118491,3.33873208 L1.97118491,2.96469434 L3.99805283,2.96469434 L3.99805283,4.34763774 L1.9336,4.34763774 C1.96167547,4.00197736 1.97118491,3.65616604 1.97118491,3.33873208 Z M1.97118491,2.15231698 L3.99805283,2.15231698 L3.99805283,0.835033962 L1.97118491,0.835033962 L1.97118491,2.15231698 Z M4.86688302,4.34733585 L7.12726038,4.34733585 L7.12726038,2.96469434 L4.86688302,2.96469434 L4.86688302,4.34733585 Z M4.86688302,2.15231698 L7.12726038,2.15231698 L7.12726038,0.835033962 L4.86688302,0.835033962 L4.86688302,2.15231698 Z M1.11186415,3.32937358 C1.11186415,4.64635472 1.01843019,6.29978868 1.50943396e-05,7.42990189 C0.196241509,7.53269434 0.551109434,7.83186415 0.682128302,8.00001509 C1.36393962,7.24303396 1.70009057,6.19699623 1.84967547,5.16952453 L3.99805283,5.16952453 L3.99805283,7.84092075 L4.86688302,7.84092075 L4.86688302,5.16952453 L7.12726038,5.16952453 L7.12726038,6.84152453 C7.12726038,7.01918491 7.06205283,7.07488302 6.89390189,7.07488302 C6.71624151,7.07488302 6.09978868,7.08424151 5.50205283,7.05631698 C5.61390189,7.28061887 5.75397736,7.66341132 5.79156226,7.8970717 C6.65088302,7.90658113 7.19261887,7.88756226 7.53843019,7.74748679 C7.87473208,7.61692075 7.99624151,7.35518491 7.99624151,6.85103396 L7.99624151,0.00378867925 L1.11186415,0.00378867925 L1.11186415,3.32937358 Z" id="Fill-33" fill="#060101" mask="url(#mask-2)"></path>
                </g>
                <path d="M34.9958169,38.6291828 L36.6449415,38.6291828 L36.6449415,37.8426641 L34.9958169,37.8426641 L34.9958169,36.53861 L36.8227237,36.53861 L36.8227237,35.7323037 L35.6325608,35.7323037 C35.9039571,35.2844273 36.2068954,34.7168597 36.4572074,34.1990026 L35.5802719,34 C35.3925379,34.507722 35.0688527,35.2245817 34.7664204,35.7323037 L32.1671558,35.7323037 L32.1671558,36.53861 L34.0770502,36.53861 L34.0770502,37.8426641 L32.3550585,37.8426641 L32.3550585,38.6291828 L34.0770502,38.6291828 L34.0770502,39.8936615 L32,39.8936615 L32,40.7199163 L34.0770502,40.7199163 L34.0770502,43 L34.9958169,43 L34.9958169,40.7199163 L37,40.7199163 L37,39.8936615 L34.9958169,39.8936615 L34.9958169,38.6291828 Z" id="Fill-35" fill="#060101"></path>
                <path d="M33.5077076,34 L33,34.3072653 C33.1997762,34.8218852 33.3998011,35.5331549 33.4767529,36 L34,35.6441669 C33.9231726,35.1900089 33.7077325,34.5031222 33.5077076,34" id="Fill-37" fill="#060101"></path>
                <path d="M30.9195895,35.5765093 C30.7866442,35.9179727 30.6068311,36.2896226 30.4458569,36.560651 L29.1945168,36.560651 C29.3747894,36.249374 29.5452596,35.9079106 29.6875479,35.5765093 L30.9195895,35.5765093 Z M30.5310155,38.4288 L31.2986675,38.4288 L31.2986675,37.2938885 L30.5310155,37.2938885 L30.5310155,38.4288 Z M30.5310155,40.2667625 L31.2986675,40.2667625 L31.2986675,39.1120514 L30.5310155,39.1120514 L30.5310155,40.2667625 Z M29.1945168,38.4288 L29.9339868,38.4288 L29.9339868,37.2938885 L29.1945168,37.2938885 L29.1945168,38.4288 Z M29.1945168,40.2667625 L29.9339868,40.2667625 L29.9339868,39.1120514 L29.1945168,39.1120514 L29.1945168,40.2667625 Z M29.4124675,34 C29.1945168,34.9137068 28.7396232,36.058518 28,36.922401 C28.1614336,37.0127979 28.3698882,37.2034916 28.5120233,37.3644858 L28.5120233,41 L32,41 L32,36.560651 L31.1848675,36.560651 C31.4599479,36.128953 31.7253791,35.62682 31.9244907,35.1746731 L31.4599479,34.802861 L31.3081636,34.8432718 L29.9621688,34.8432718 C30.0476336,34.5922053 30.1234492,34.3513633 30.1897687,34.1101966 L29.4124675,34 Z" id="Fill-39" fill="#060101"></path>
                <path d="M28,41.325465 L28.1224288,42 C29.1763811,41.9049391 30.6259078,41.7617704 32,41.6112893 L31.9812935,41 C30.5221855,41.1267479 28.9978328,41.2536241 28,41.325465" id="Fill-41" fill="#060101"></path>
                <polygon id="Fill-43" fill="#060101" points="59.3365626 34 58.36864 34 58.36864 35.0343371 56 35.0343371 56 36.045538 58.36864 36.045538 58.36864 36.9546456 59.3365626 36.9546456 59.3365626 36.045538 61.7253365 36.045538 61.7253365 37 62.7035757 37 62.7035757 36.045538 65 36.045538 65 35.0343371 62.7035757 35.0343371 62.7035757 34 61.7253365 34 61.7253365 35.0343371 59.3365626 35.0343371"></polygon>
                <path d="M59.1976793,37 C58.7093531,38.0856149 57.8722225,39.1433974 57,39.8077447 C57.2006859,39.948268 57.5231362,40.2480714 57.6716775,40.4165784 C57.924367,40.1918015 58.1862169,39.9391923 58.4389064,39.6393889 L58.4389064,43 L59.2675812,43 L59.2675812,38.5630011 C59.537887,38.1508093 59.7994551,37.7018605 60,37.2618363 L59.1976793,37 Z" id="Fill-45" fill="#060101"></path>
                <path d="M63.5624425,42.1332109 L62.0449846,42.1332109 C61.5826341,42.1332109 61.5025713,42.045383 61.5025713,41.6460651 L61.5025713,39.9902413 C62.5979538,39.4835782 63.6532236,38.9381952 64.4874682,38.3731375 L63.8339739,37.6332109 C63.2210794,38.1099685 62.3969036,38.5875131 61.5025713,39.0551417 L61.5025713,37 L60.5478266,37 L60.5478266,39.5323715 C60.0352948,39.7758657 59.5125318,40 59,40.2047744 C59.1404753,40.3897167 59.311644,40.681532 59.3715693,40.9056663 C59.7636009,40.7501574 60.1556325,40.5844176 60.5478266,40.4186779 L60.5478266,41.6460651 C60.5478266,42.698426 60.8390083,43 61.9347155,43 L63.622855,43 C64.6177123,43 64.8790126,42.5424449 65,41.0421301 C64.7284686,40.9742917 64.336437,40.8277545 64.1154117,40.6621721 C64.0652303,41.8897167 63.9848427,42.1332109 63.5624425,42.1332109" id="Fill-47" fill="#060101"></path>
                <path d="M87,41.0766971 C87.1042721,41.7082109 87.1826869,42.5122932 87.1826869,43 L88,42.8849544 C87.9912872,42.4069893 87.8958685,41.6124942 87.7738898,41 L87,41.0766971 Z" id="Fill-49" fill="#060101"></path>
                <path d="M89,41.1761053 C89.3625896,41.7590334 89.7372993,42.5279419 89.8625391,43 L91,42.7872372 C90.8377942,42.3148799 90.4372286,41.5556969 90.049591,41 L89,41.1761053 Z" id="Fill-51" fill="#060101"></path>
                <mask id="mask-4" fill="white">
                    <use xlink:href="#path-3"></use>
                </mask>
                <g id="Clip-54"></g>
                <path d="M86.8372755,39.1755808 L91.4476879,39.1755808 L91.4476879,37.6707796 L86.8372755,37.6707796 L86.8372755,39.1755808 Z M92.3416737,36.8466701 L89.5470559,36.8466701 L89.5470559,35.7637584 L93,35.7637584 L93,34.9391843 L89.5470559,34.9391843 L89.5470559,34 L88.6533742,34 L88.6533742,36.8466701 L86,36.8466701 L86,40 L92.3416737,40 L92.3416737,36.8466701 Z" id="Fill-53" fill="#060101" mask="url(#mask-4)"></path>
                <path d="M91,41.2584164 C91.448958,41.8000269 91.9627001,42.5333962 92.1679251,43 L93,42.6999731 C92.7663848,42.2330999 92.2337662,41.5249125 91.7758985,41 L91,41.2584164 Z" id="Fill-55" fill="#060101" mask="url(#mask-4)"></path>
                <path d="M85,42.6554861 L85.7853295,43 C86.2785772,42.5630092 86.7260719,41.8488593 87,41.1929658 L86.1965169,41 C85.9132905,41.6135253 85.4657959,42.2857143 85,42.6554861" id="Fill-56" fill="#060101" mask="url(#mask-4)"></path>
                <path d="M114.910831,37.3601034 L119.029492,37.3601034 L119.029492,36.6302012 L114.910831,36.6302012 L114.910831,37.3601034 Z M114,38 L120,38 L120,36 L114,36 L114,38 Z" id="Fill-57" fill="#060101" mask="url(#mask-4)"></path>
                <polygon id="Fill-58" fill="#060101" mask="url(#mask-4)" points="121 39.9886165 121 38 113 38 113 40 113.82881 40 113.82881 38.8297072 120.133427 38.8297072 120.133427 39.9886165"></polygon>
                <path d="M120.795856,42.0934904 L119.918511,42.0934904 C119.632273,42.0934904 119.581489,42.0652469 119.581489,41.803655 L119.581489,40 L115.428239,40 C115.346622,41.3735085 115.071266,41.9531793 113,42.2712581 C113.194068,42.4395106 113.428532,42.7760157 113.510314,43 C115.520574,42.6354025 116.142679,41.9717565 116.336747,40.7190757 L118.571413,40.7190757 L118.571413,41.8131702 C118.571413,42.6074611 118.806042,42.8412626 119.765004,42.8412626 L120.908306,42.8412626 C121.663308,42.8412626 121.907665,42.5610935 122,41.4390575 C121.734373,41.3920858 121.336344,41.2430147 121.142771,41.1120677 C121.112102,41.9531793 121.060989,42.0934904 120.795856,42.0934904" id="Fill-59" fill="#060101" mask="url(#mask-4)"></path>
                <path d="M113,36 L122,36 L122,35.0992915 L118.211711,35.0992915 C118.098704,34.7837506 117.894034,34.3276334 117.709881,34 L116.747256,34.2341049 C116.880449,34.4914502 117.023568,34.8073689 117.125986,35.0992915 L113,35.0992915 L113,36 Z" id="Fill-60" fill="#060101" mask="url(#mask-4)"></path>
                <path d="M146.031131,39.7492978 L149.148279,39.7492978 L149.148279,38.8453584 L146.031131,38.8453584 L146.031131,36.8137516 L149.518832,36.8137516 L149.518832,35.8892942 L146.031131,35.8892942 L146.031131,34 L145.069281,34 L145.069281,35.8892942 L143.254737,35.8892942 C143.445358,35.4017873 143.625614,34.8834215 143.77607,34.3655481 L142.81422,34.1423126 C142.443343,35.5642896 141.811718,36.9559001 141,37.8191319 C141.250058,37.9514317 141.661424,38.22588 141.851721,38.3883823 C142.202354,37.9614445 142.533066,37.4233814 142.843695,36.8137516 L145.069281,36.8137516 L145.069281,38.8453584 L142.212719,38.8453584 L142.212719,39.7492978 L145.069281,39.7492978 L145.069281,42.0853912 L141.100088,42.0853912 L141.100088,43 L150,43 L150,42.0853912 L146.031131,42.0853912 L146.031131,39.7492978 Z" id="Fill-61" fill="#060101" mask="url(#mask-4)"></path>
                <path d="M172,35.1476042 C171.638672,34.829631 170.924163,34.3177896 170.436961,34 L170,34.7497705 C170.495892,35.1250229 171.193428,35.6702772 171.537918,36 L172,35.1476042 Z" id="Fill-62" fill="#060101" mask="url(#mask-4)"></path>
                <path d="M173.45475,41.7593614 L176.6021,41.7593614 L176.6021,39.9867933 L173.45475,39.9867933 L173.45475,41.7593614 Z M178,37.7021852 L178,36.8257664 L175.480307,36.8257664 L175.480307,35.2800997 C176.269449,35.1324387 177.01096,34.9449984 177.619565,34.708709 L176.925531,34 C175.879641,34.40384 174.034776,34.7187334 172.408707,34.8959902 C172.513496,35.1028429 172.627503,35.4473321 172.665762,35.6642092 C173.293111,35.6144054 173.977772,35.5359605 174.643227,35.4277607 L174.643227,36.8257664 L172,36.8257664 L172,37.7021852 L174.643227,37.7021852 L174.643227,39.1597009 L172.646402,39.1597009 L172.646402,43 L173.45475,43 L173.45475,42.5864538 L176.6021,42.5864538 L176.6021,42.9505145 L177.439334,42.9505145 L177.439334,39.1597009 L175.480307,39.1597009 L175.480307,37.7021852 L178,37.7021852 Z" id="Fill-63" fill="#060101" mask="url(#mask-4)"></path>
                <path d="M171,37.1249656 C170.642189,36.8182903 169.919417,36.3178771 169.433993,36 L169,36.7841337 C169.510451,37.1363511 170.217134,37.6817556 170.566007,38 L171,37.1249656 Z" id="Fill-64" fill="#060101" mask="url(#mask-4)"></path>
                <path d="M169,42.3439063 L169.611914,43 C170.074651,42.0162869 170.6,40.7458214 171,39.6564357 L170.474905,39 C170.019645,40.1959133 169.415589,41.5503356 169,42.3439063" id="Fill-65" fill="#060101" mask="url(#mask-4)"></path>
            </g>
        </g>
    </g>
</svg>